<?xml version="1.0" encoding="UTF-8"?>
<svg xmlns="http://www.w3.org/2000/svg" xmlns:xlink="http://www.w3.org/1999/xlink" width="24px" height="24px" viewBox="0 0 24 24" version="1.1">
<g id="surface1">
<path style="fill:none;stroke-width:32;stroke-linecap:round;stroke-linejoin:round;stroke:rgb(0%,0%,0%);stroke-opacity:1;stroke-miterlimit:4;" d="M 407.75 224 C 404.333333 224 392.916667 224.083333 389.75 224.333333 L 324.833333 226 C 262.416667 226.25 211.583333 175.833333 211.333333 113.416667 C 211.083333 51.083333 261.5 0.25 323.916667 0 L 193.583333 67.583333 C 174.916667 68.583333 159 54.25 158 35.583333 C 157 16.916667 171.333333 1 190 0 L 160 0 L 233 161 C 188.5 160.083333 153.25 123.25 154.166667 78.833333 C 155.083333 34.333333 191.916667 -0.916667 236.333333 0 L 114.666667 1.833333 C 117.666667 4.583333 118.083333 9.166667 115.666667 12.5 C 113.166667 15.833333 108.666667 16.75 105.083333 14.666667 C 101.583333 12.583333 100.166667 8.25 101.75 4.416667 C 103.416667 0.666667 107.666667 -1.25 111.583333 0 L 74.583333 -45 C 71.583333 -48.916667 65.916667 -51 61.083333 -51 L 33.083333 -51 C 31.75 -51 32 -49.75 32.333333 -48.583333 L 52.166667 22.833333 C 45.833333 50.666667 18.166667 68.083333 -9.666667 61.833333 C -37.416667 55.5 -54.916667 27.833333 -48.583333 0 L 32.333333 333 C 31.75 334.916667 31.75 336 34.083333 336 L 52 336 C 60.166667 336 61.25 334.916667 65.416667 329.666667 L 103.083333 284 C 24.666667 221.416667 11.833333 107.166667 74.416667 28.666667 C 137 -49.75 251.25 -62.583333 329.666667 0 L 450.416667 2.666667 C 449.666667 36 422 62.416667 388.666667 61.666667 C 355.333333 60.916667 328.916667 33.333333 329.666667 0 L 160 448 L 186.666667 448 C 62.916667 408.5 -5.333333 276.166667 34.166667 152.5 C 73.666667 28.75 206 -39.5 329.666667 0 L 323.166667 287 C 323.5 286.416667 325.166667 286.083333 325.833333 286.083333 L 389.75 287.833333 C 393 288 404.333333 288.083333 407.75 288.083333 C 452 288.083333 480 275.916667 480 256 C 480 236.083333 452.083333 224 407.75 224 Z M 407.75 224 " transform="matrix(0.046875,0,0,0.046875,0,0)"/>
</g>
</svg>
