<?xml version="1.0" encoding="UTF-8"?>
<svg xmlns="http://www.w3.org/2000/svg" xmlns:xlink="http://www.w3.org/1999/xlink" width="24px" height="24px" viewBox="0 0 24 24" version="1.1">
<g id="surface1">
<path style="fill:none;stroke-width:32;stroke-linecap:butt;stroke-linejoin:miter;stroke:rgb(0%,0%,0%);stroke-opacity:1;stroke-miterlimit:10;" d="M 461.916667 261.083333 C 459.916667 256.25 455.25 253.25 450.25 251.583333 L 263.083333 177.083333 C 214.166667 177.083333 174.5 137.416667 174.5 88.5 C 174.5 39.666667 214.166667 0 263.083333 0 L 76.083333 74.5 C 71.083333 76.083333 66.25 79.25 64.25 84.083333 C 62.25 88.833333 61.333333 93.416667 63.25 99.166667 L 109.833333 218.25 C 49.5 225.416667 -5.083333 182.25 -12.25 122 C -19.333333 61.75 23.75 7.083333 84.083333 0 C 110.75 -1.666667 134.333333 -15.25 152.416667 -32.5 C 143.416667 -83.583333 94.75 -117.666667 43.75 -108.75 C -7.333333 -99.75 -41.5 -51.083333 -32.5 0 C 201.25 386 227 400 256 400 C 285 400 310.583333 386 329.916667 367.5 C 431.333333 386.833333 529.333333 320.25 548.666667 218.75 C 568 117.333333 501.5 19.333333 400 0 C 418.083333 17.25 441.666667 30.833333 468.416667 32.5 C 459.416667 152.916667 354.583333 243.166667 234.166667 234.166667 C 113.833333 225.166667 23.583333 120.333333 32.5 0 L 79.25 -119.166667 C 81.25 -123.916667 80.25 -129.583333 78.25 -134.333333 Z M 461.916667 261.083333 " transform="matrix(0.046875,0,0,0.046875,0,0)"/>
<path style=" stroke:none;fill-rule:nonzero;fill:rgb(0%,0%,0%);fill-opacity:1;" d="M 19.5 22.179688 C 13.375 22.257812 8.347656 17.355469 8.269531 11.230469 C 8.191406 5.105469 13.09375 0.078125 19.21875 0 C 17.949219 -0.683594 16.792969 -1.726562 16.28125 -2.25 C 16.902344 -2.230469 17.390625 -1.710938 17.371094 -1.089844 C 17.351562 -0.46875 16.832031 0.0195312 16.210938 0 C 13.851562 1.519531 10.980469 1.519531 8.621094 0.00390625 C 8.644531 0 8.667969 0 8.695312 0 C 8.1875 0.527344 7.042969 1.5625 5.765625 2.238281 C 5.917969 2.269531 6.03125 2.398438 6.035156 2.554688 C 7.011719 2.359375 7.957031 1.914062 8.859375 1.4375 C 9.167969 3.484375 7.753906 5.398438 5.707031 5.707031 C 3.65625 6.015625 1.746094 4.601562 1.4375 2.554688 C 2.332031 3.023438 3.273438 3.472656 4.25 3.667969 C 3.941406 3.828125 3.5625 3.710938 3.402344 3.402344 C 3.242188 3.09375 3.359375 2.714844 3.667969 2.554688 Z M 19.5 22.179688 "/>
<path style="fill:none;stroke-width:32;stroke-linecap:round;stroke-linejoin:round;stroke:rgb(0%,0%,0%);stroke-opacity:1;stroke-miterlimit:4;" d="M 320 96 L 320 72 C 300.083333 78.666667 278.666667 67.916667 272 48 C 265.333333 28.083333 276.083333 6.666667 296 0 L 216 0 C 223.416667 -4.25 232.583333 -4.25 240 0 L 240 24 M 416 233 L 416 144 C 376.25 157.25 333.25 135.75 320 96 C 306.75 56.25 328.25 13.25 368 0 L 144 0 C 158.833333 -8.583333 177.166667 -8.583333 192 0 L 192 92 M 256 183.583333 L 256 396.416667 " transform="matrix(0.046875,0,0,0.046875,0,0)"/>
</g>
</svg>
