<?xml version="1.0" encoding="UTF-8"?>
<svg xmlns="http://www.w3.org/2000/svg" xmlns:xlink="http://www.w3.org/1999/xlink" width="24px" height="24px" viewBox="0 0 24 24" version="1.1">
<g id="surface1">
<path style="fill:none;stroke-width:32;stroke-linecap:round;stroke-linejoin:round;stroke:rgb(0%,0%,0%);stroke-opacity:1;stroke-miterlimit:4;" d="M 469.75 234.583333 C 462.416667 224.833333 435.166667 218.166667 423.666667 200.666667 C 412.083333 183.166667 402.666667 145.25 373.333333 130.666667 C 344 116.083333 288 112 256 112 C 224 112 168 116 138.666667 130.666667 C 109.25 145.25 99.916667 183.166667 88.333333 200.666667 C 76.833333 218.083333 49.583333 224.833333 42.25 234.583333 C 35 244.333333 29.833333 305.833333 32.916667 336 C 36.083333 366.166667 41.916667 384 41.916667 384 L 127.916667 384 C 142 384 146.583333 378.75 175.416667 376 C 207 373 238 372 256 372 C 274 372 306 373 337.583333 376 C 366.416667 378.75 371.083333 384 385 384 L 470 384 C 470 384 475.916667 366.166667 479 336 C 482.166667 305.833333 477 244.333333 469.75 234.583333 Z M 400 384 L 456 384 L 456 400 L 400 400 Z M 56 384 L 112 384 L 112 400 L 56 400 Z M 56 384 " transform="matrix(0.046875,0,0,0.046875,0,0)"/>
<path style=" stroke:none;fill-rule:nonzero;fill:rgb(0%,0%,0%);fill-opacity:1;" d="M 17.085938 14.492188 C 16.808594 14.171875 15.90625 13.90625 14.710938 13.726562 C 13.515625 13.546875 13.078125 13.5 12.007812 13.5 C 10.941406 13.5 10.453125 13.578125 9.308594 13.726562 C 8.164062 13.875 7.304688 14.136719 6.933594 14.492188 C 6.378906 15.027344 7.191406 15.628906 7.828125 15.703125 C 8.445312 15.773438 9.679688 15.746094 12.015625 15.746094 C 14.351562 15.746094 15.585938 15.773438 16.199219 15.703125 C 16.835938 15.625 17.589844 15.066406 17.085938 14.492188 Z M 20.230469 11.394531 C 17.082031 11.433594 14.5 8.914062 14.464844 5.765625 C 14.425781 2.621094 16.941406 0.0390625 20.089844 0 C 19.535156 -0.0195312 18.972656 0.0195312 17.976562 0.3125 C 18.203125 0.1875 18.4375 0.0820312 18.683594 0 C 18.574219 0.0820312 18.613281 0.308594 18.746094 0.332031 C 27.660156 4.796875 32.296875 14.835938 29.917969 24.515625 C 27.539062 34.195312 18.773438 40.9375 8.804688 40.757812 C -1.160156 40.578125 -9.675781 33.523438 -11.703125 23.761719 C -13.734375 14.003906 -8.734375 4.136719 0.332031 0 C 0.828125 0 1.339844 -0.140625 1.4375 -0.582031 C 2.570312 -0.398438 3.425781 0.546875 3.496094 1.695312 C 3.5625 2.839844 2.828125 3.882812 1.722656 4.203125 C 0.621094 4.519531 -0.558594 4.03125 -1.109375 3.023438 C -1.664062 2.015625 -1.445312 0.761719 -0.582031 0 Z M 3.769531 11.394531 C 0.625 12.59375 -2.902344 11.019531 -4.101562 7.875 C -5.304688 4.726562 -3.730469 1.203125 -0.582031 0 C -0.03125 -0.0195312 0.53125 0.0195312 1.53125 0.3125 C 3.660156 1.203125 4.742188 3.585938 4.003906 5.773438 C 3.269531 7.964844 0.96875 9.210938 -1.265625 8.636719 C -3.5 8.058594 -4.910156 5.855469 -4.496094 3.582031 C -4.078125 1.3125 -1.980469 -0.25 0.3125 0 C 0.421875 0.0820312 0.382812 0.308594 0.25 0.332031 C -4.546875 11.0625 -17.113281 15.898438 -27.863281 11.148438 C -38.613281 6.402344 -43.5 -6.144531 -38.796875 -16.914062 C -34.09375 -27.683594 -21.570312 -32.625 -10.78125 -27.96875 C 0.0078125 -23.3125 5.003906 -10.808594 0.394531 0 C -0.101562 0 -0.613281 -0.140625 -0.710938 -0.582031 C 0.429688 -1.128906 1.796875 -0.722656 2.453125 0.355469 C 3.105469 1.433594 2.839844 2.835938 1.832031 3.59375 C 0.824219 4.355469 -0.597656 4.226562 -1.453125 3.296875 C -2.308594 2.371094 -2.324219 0.945312 -1.484375 0 Z M 3.769531 11.394531 "/>
<path style="fill:none;stroke-width:32;stroke-linecap:round;stroke-linejoin:round;stroke:rgb(0%,0%,0%);stroke-opacity:1;stroke-miterlimit:4;" d="M 432 192 L 448 192 M 64 192 L 80 192 M 78 211 C 78 211 124.333333 199 256 199 C 387.666667 199 434 211 434 211 " transform="matrix(0.046875,0,0,0.046875,0,0)"/>
</g>
</svg>
