<?xml version="1.0" encoding="UTF-8"?>
<svg xmlns="http://www.w3.org/2000/svg" xmlns:xlink="http://www.w3.org/1999/xlink" width="24px" height="24px" viewBox="0 0 24 24" version="1.1">
<g id="surface1">
<path style=" stroke:none;fill-rule:nonzero;fill:rgb(0%,0%,0%);fill-opacity:1;" d="M 21.40625 11.355469 L 20.183594 11.160156 C 17.105469 11.246094 14.535156 8.820312 14.445312 5.738281 C 14.359375 2.65625 16.785156 0.0898438 19.867188 0 C 19.84375 -0.148438 19.820312 -0.300781 19.785156 -0.445312 C 19.910156 5.140625 15.480469 9.769531 9.894531 9.894531 C 4.304688 10.015625 -0.324219 5.585938 -0.445312 0 L 0.636719 -0.601562 C 0.800781 -0.300781 0.695312 0.0742188 0.394531 0.242188 C 0.0976562 0.40625 -0.28125 0.300781 -0.445312 0 L -0.632812 -0.515625 C -0.585938 -0.417969 -0.585938 -0.304688 -0.632812 -0.203125 C -0.675781 -0.105469 -0.761719 -0.03125 -0.867188 0 L -2.082031 0.234375 C -2.035156 0.40625 -2.113281 0.585938 -2.269531 0.667969 C -2.425781 0.75 -2.621094 0.710938 -2.730469 0.574219 C -2.84375 0.4375 -2.847656 0.238281 -2.734375 0.101562 C -2.625 -0.0390625 -2.433594 -0.078125 -2.273438 0 C -2.34375 -0.132812 -2.417969 -0.261719 -2.5 -0.394531 C -2.480469 -0.558594 -2.355469 -0.691406 -2.195312 -0.722656 C -2.035156 -0.757812 -1.867188 -0.683594 -1.785156 -0.539062 C -1.703125 -0.394531 -1.722656 -0.214844 -1.835938 -0.09375 C -1.945312 0.0273438 -2.121094 0.0664062 -2.273438 0 L -1.464844 -0.933594 C -1.207031 -0.710938 -1.175781 -0.320312 -1.402344 -0.0625 C -1.625 0.195312 -2.015625 0.222656 -2.273438 0 L -2.625 -0.421875 C -2.554688 -0.28125 -2.585938 -0.109375 -2.695312 0 L -3.757812 0.640625 C -3.910156 0.746094 -4.117188 0.726562 -4.242188 0.59375 C -4.371094 0.460938 -4.386719 0.257812 -4.277344 0.109375 C -4.164062 -0.0390625 -3.964844 -0.0859375 -3.800781 0 C -3.914062 -0.0976562 -4.03125 -0.199219 -4.148438 -0.292969 C -3.996094 -0.265625 -3.875 -0.152344 -3.84375 -0.00390625 C -3.808594 0.148438 -3.871094 0.300781 -3.996094 0.386719 C -4.125 0.476562 -4.289062 0.476562 -4.417969 0.390625 C -4.546875 0.304688 -4.609375 0.148438 -4.574219 0 L -4.136719 -1.160156 C -3.816406 -1.039062 -3.652344 -0.679688 -3.773438 -0.359375 C -3.898438 -0.0390625 -4.253906 0.121094 -4.574219 0 L -5.054688 -0.277344 C -4.984375 -0.203125 -4.945312 -0.101562 -4.949219 0 L -5.730469 0.976562 C -6 0.945312 -6.191406 0.699219 -6.160156 0.429688 C -6.128906 0.160156 -5.882812 -0.03125 -5.613281 0 C -5.613281 0 -5.875 -0.109375 -6.070312 -0.175781 C -6.148438 -0.3125 -6.128906 -0.480469 -6.023438 -0.597656 C -5.921875 -0.714844 -5.753906 -0.757812 -5.609375 -0.703125 C -5.464844 -0.648438 -5.367188 -0.507812 -5.367188 -0.351562 C -5.367188 -0.195312 -5.464844 -0.0546875 -5.613281 0 L -5.59375 -1.238281 C -5.25 -1.128906 -5.0625 -0.765625 -5.171875 -0.421875 C -5.28125 -0.0820312 -5.644531 0.109375 -5.988281 0 L -6.53125 -0.09375 C -6.4375 -0.0976562 -6.339844 -0.0625 -6.269531 0 L -6.671875 1.175781 C -6.996094 1.105469 -7.203125 0.785156 -7.132812 0.460938 C -7.0625 0.136719 -6.742188 -0.0703125 -6.417969 0 L -6.878906 0 C -6.703125 0.0625 -6.601562 0.238281 -6.632812 0.421875 C -6.664062 0.601562 -6.820312 0.734375 -7.003906 0.734375 C -7.1875 0.734375 -7.347656 0.601562 -7.378906 0.421875 C -7.410156 0.238281 -7.304688 0.0625 -7.132812 0 L -7.535156 -1.175781 C -7.210938 -1.101562 -7.007812 -0.78125 -7.078125 -0.457031 C -7.152344 -0.132812 -7.472656 0.0742188 -7.796875 0 L -8.339844 0.09375 C -8.238281 -0.0117188 -8.085938 -0.046875 -7.945312 0 L -7.925781 1.238281 C -8.269531 1.140625 -8.464844 0.78125 -8.367188 0.4375 C -8.265625 0.0976562 -7.910156 -0.101562 -7.566406 0 C -7.675781 0.0429688 -7.910156 0.132812 -8.019531 0.175781 C -8.152344 0.222656 -8.308594 0.183594 -8.433594 0.0390625 L -9.207031 -0.914062 C -8.953125 -3.46875 -6.679688 -5.332031 -4.125 -5.082031 C -1.574219 -4.828125 0.289062 -2.554688 0.0390625 0 L -0.441406 0.277344 C -0.417969 0.175781 -0.355469 0.0859375 -0.265625 0.0351562 C -0.175781 -0.0195312 -0.0664062 -0.03125 0.03125 0 L 0.472656 1.160156 C 0.152344 1.042969 -0.0117188 0.6875 0.105469 0.367188 C 0.222656 0.046875 0.578125 -0.117188 0.898438 0 C 0.78125 0.09375 0.664062 0.191406 0.554688 0.292969 C 0.460938 0.445312 0.273438 0.507812 0.105469 0.449219 C -0.0625 0.390625 -0.164062 0.21875 -0.136719 0.0429688 C -0.113281 -0.132812 0.0351562 -0.269531 0.210938 -0.277344 C 0.390625 -0.289062 0.550781 -0.171875 0.59375 0 L 5.203125 5.445312 C 3.699219 5.425781 2.496094 4.191406 2.515625 2.6875 C 2.535156 1.183594 3.769531 -0.0195312 5.273438 0 L 4.921875 0.421875 C 4.71875 0.433594 4.542969 0.28125 4.527344 0.078125 C 4.511719 -0.125 4.660156 -0.304688 4.863281 -0.324219 C 5.066406 -0.347656 5.25 -0.203125 5.273438 0 L 6.085938 0.933594 C 5.828125 1.160156 5.4375 1.128906 5.210938 0.871094 C 4.988281 0.613281 5.015625 0.222656 5.273438 0 C 5.195312 0.125 5.121094 0.257812 5.050781 0.394531 C 4.902344 0.472656 4.722656 0.449219 4.605469 0.335938 C 4.484375 0.222656 4.453125 0.0429688 4.523438 -0.105469 C 4.597656 -0.253906 4.757812 -0.339844 4.921875 -0.316406 C 5.085938 -0.289062 5.214844 -0.164062 5.242188 0 L 4.027344 -0.234375 C 4.136719 -0.195312 4.226562 -0.109375 4.261719 0 L 4.074219 0.515625 C 3.886719 0.597656 3.667969 0.511719 3.582031 0.324219 C 3.496094 0.136719 3.578125 -0.0820312 3.761719 -0.171875 C 3.949219 -0.261719 4.171875 -0.183594 4.261719 0 L 4.011719 9.984375 C 1.253906 9.914062 -0.925781 7.625 -0.855469 4.867188 C -0.785156 2.109375 1.503906 -0.0703125 4.261719 0 C 4.234375 0.148438 4.207031 0.296875 4.183594 0.445312 C 3.976562 0.472656 3.789062 0.332031 3.757812 0.128906 C 3.722656 -0.0742188 3.863281 -0.265625 4.066406 -0.300781 C 4.269531 -0.335938 4.464844 -0.203125 4.503906 0 L 3.28125 0.195312 C 3.351562 0.0625 3.5 -0.015625 3.652344 0 L 3.652344 0.550781 C 3.503906 0.679688 3.277344 0.671875 3.140625 0.53125 C 3.003906 0.386719 3.003906 0.160156 3.140625 0.0195312 C 3.277344 -0.125 3.503906 -0.132812 3.652344 0 L 4.875 0.195312 C 4.820312 0.535156 4.5 0.765625 4.164062 0.710938 C 3.828125 0.65625 3.597656 0.335938 3.652344 0 C 3.675781 0.148438 3.699219 0.300781 3.730469 0.445312 C 3.535156 0.429688 3.382812 0.265625 3.382812 0.0703125 C 3.382812 -0.125 3.53125 -0.289062 3.726562 -0.308594 C 3.921875 -0.328125 4.097656 -0.191406 4.136719 0 L 2.929688 14.609375 C -1.105469 14.484375 -4.273438 11.109375 -4.144531 7.074219 C -4.015625 3.039062 -0.640625 -0.128906 3.394531 0 L 3.582031 0.515625 C 3.488281 0.695312 3.269531 0.765625 3.089844 0.679688 C 2.90625 0.589844 2.828125 0.375 2.910156 0.191406 C 2.996094 0.0078125 3.207031 -0.078125 3.394531 0 L 4.609375 -0.234375 C 4.671875 0.101562 4.453125 0.425781 4.117188 0.488281 C 3.78125 0.554688 3.457031 0.335938 3.394531 0 C 3.464844 0.132812 3.539062 0.261719 3.621094 0.394531 C 3.421875 0.359375 3.28125 0.179688 3.300781 -0.0195312 C 3.320312 -0.21875 3.492188 -0.371094 3.695312 -0.363281 C 3.894531 -0.359375 4.054688 -0.199219 4.066406 0 L 3.253906 0.9375 C 2.996094 0.796875 2.898438 0.476562 3.035156 0.21875 C 3.171875 -0.0390625 3.496094 -0.136719 3.753906 0 L 4.105469 0.421875 C 4.074219 0.617188 3.894531 0.757812 3.699219 0.734375 C 3.5 0.714844 3.355469 0.539062 3.371094 0.34375 C 3.382812 0.144531 3.554688 -0.0078125 3.753906 0 L 4.816406 -0.640625 C 4.992188 -0.34375 4.898438 0.0351562 4.605469 0.210938 C 4.308594 0.390625 3.929688 0.292969 3.753906 0 C 3.867188 0.0976562 3.984375 0.199219 4.101562 0.292969 C 4.019531 1.34375 3.101562 2.128906 2.050781 2.050781 C 1 1.96875 0.210938 1.050781 0.292969 0 L -0.148438 1.160156 C -0.46875 1.039062 -0.628906 0.679688 -0.507812 0.359375 C -0.386719 0.0390625 -0.0273438 -0.121094 0.292969 0 L 0.769531 0.277344 C 0.8125 0.476562 0.691406 0.671875 0.496094 0.722656 C 0.296875 0.769531 0.0976562 0.65625 0.0429688 0.460938 C -0.0117188 0.265625 0.0976562 0.0625 0.292969 0 L 1.078125 -0.96875 C 1.175781 -1.089844 1.335938 -1.140625 1.464844 -1.089844 C 1.621094 -1.023438 1.730469 -0.984375 1.925781 -0.921875 C 2.179688 -0.132812 1.75 0.710938 0.964844 0.964844 C 0.175781 1.21875 -0.667969 0.785156 -0.921875 0 L -0.9375 1.238281 C -1.28125 1.234375 -1.554688 0.953125 -1.550781 0.609375 C -1.542969 0.269531 -1.261719 -0.00390625 -0.921875 0 L -0.375 0.09375 C -0.261719 0.265625 -0.308594 0.496094 -0.476562 0.613281 C -0.648438 0.730469 -0.878906 0.691406 -1 0.523438 C -1.121094 0.355469 -1.085938 0.125 -0.921875 0 L -0.515625 -1.171875 C -0.195312 -1.0625 -0.0195312 -0.707031 -0.132812 -0.382812 C -0.242188 -0.0625 -0.597656 0.109375 -0.921875 0 L -0.460938 0 C -0.332031 0.0976562 -0.28125 0.269531 -0.332031 0.421875 C -0.382812 0.574219 -0.527344 0.679688 -0.691406 0.679688 C -0.851562 0.679688 -0.996094 0.574219 -1.046875 0.421875 C -1.101562 0.269531 -1.050781 0.0976562 -0.921875 0 L -0.515625 1.171875 C -0.839844 1.28125 -1.191406 1.109375 -1.304688 0.789062 C -1.414062 0.464844 -1.242188 0.109375 -0.921875 0 L -0.375 -0.09375 C -0.210938 0.03125 -0.175781 0.261719 -0.296875 0.429688 C -0.417969 0.597656 -0.648438 0.636719 -0.820312 0.519531 C -0.988281 0.402344 -1.035156 0.171875 -0.921875 0 L -0.9375 -1.238281 C -0.597656 -1.246094 -0.316406 -0.972656 -0.308594 -0.628906 C -0.304688 -0.285156 -0.578125 -0.00390625 -0.921875 0 C -0.722656 -0.0664062 -0.59375 -0.117188 -0.46875 -0.164062 C -0.347656 -0.210938 -0.199219 -0.210938 -0.0820312 -0.0664062 L 0.714844 0.914062 C 0.464844 1.160156 0.0625 1.152344 -0.183594 0.898438 C -0.425781 0.644531 -0.417969 0.242188 -0.164062 0 L 0.3125 -0.277344 C 0.503906 -0.214844 0.613281 -0.015625 0.558594 0.179688 C 0.5 0.371094 0.304688 0.484375 0.109375 0.4375 C -0.0859375 0.390625 -0.207031 0.195312 -0.164062 0 L -0.605469 -1.160156 C -0.285156 -1.28125 0.0742188 -1.121094 0.195312 -0.800781 C 0.316406 -0.480469 0.15625 -0.121094 -0.164062 0 C -0.046875 -0.09375 0.0703125 -0.191406 0.183594 -0.292969 C 0.375 -0.234375 0.492188 -0.0351562 0.441406 0.160156 C 0.390625 0.359375 0.195312 0.480469 -0.00390625 0.433594 C -0.199219 0.390625 -0.328125 0.199219 -0.292969 0 L 18.796875 18.546875 C 13.675781 23.816406 5.25 23.9375 -0.0195312 18.816406 C -5.292969 13.695312 -5.414062 5.269531 -0.292969 0 L 0.0585938 -0.421875 C 0.0859375 -0.289062 0.0351562 -0.152344 -0.0664062 -0.0664062 C -0.167969 0.0195312 -0.3125 0.046875 -0.4375 0 L -1.25 -0.933594 C -0.988281 -0.8125 -0.878906 -0.503906 -1.003906 -0.246094 C -1.128906 0.015625 -1.4375 0.125 -1.695312 0 C -1.613281 -0.125 -1.539062 -0.257812 -1.46875 -0.394531 C -1.320312 -0.460938 -1.144531 -0.421875 -1.035156 -0.300781 C -0.925781 -0.179688 -0.90625 0 -0.988281 0.140625 C -1.066406 0.285156 -1.230469 0.359375 -1.390625 0.328125 C -1.554688 0.292969 -1.675781 0.164062 -1.695312 0 L -0.480469 0.234375 C -0.546875 0.570312 -0.871094 0.789062 -1.203125 0.722656 C -1.539062 0.660156 -1.757812 0.335938 -1.695312 0 L -1.507812 -0.515625 C -1.445312 -0.378906 -1.46875 -0.214844 -1.570312 -0.105469 C -1.671875 0.0078125 -1.828125 0.0507812 -1.972656 0 L -3.054688 -0.601562 C -2.910156 -0.546875 -2.8125 -0.410156 -2.8125 -0.257812 C -2.8125 -0.101562 -2.90625 0.0351562 -3.046875 0.09375 C -3.191406 0.148438 -3.355469 0.113281 -3.457031 0 C -3.429688 -0.148438 -3.402344 -0.296875 -3.378906 -0.445312 C -3.253906 -1.253906 -2.5 -1.8125 -1.6875 -1.6875 C -0.878906 -1.566406 -0.324219 -0.808594 -0.445312 0 L 0.777344 -0.195312 C 0.832031 0.140625 0.601562 0.457031 0.265625 0.511719 C -0.0742188 0.566406 -0.390625 0.335938 -0.445312 0 L -0.445312 11.71875 C -3.683594 11.820312 -6.386719 9.277344 -6.484375 6.039062 C -6.585938 2.804688 -4.042969 0.101562 -0.808594 0 Z M 12 5.25 C 10.550781 8.785156 6.507812 10.480469 2.972656 9.027344 C -0.566406 7.578125 -2.257812 3.535156 -0.808594 0 L 12.871094 0 C 13.238281 0.09375 13.476562 0.445312 13.425781 0.820312 C 13.378906 1.195312 13.058594 1.476562 12.683594 1.476562 C 12.304688 1.476562 11.988281 1.195312 11.9375 0.820312 C 11.890625 0.445312 12.128906 0.09375 12.492188 0 L 10.050781 -4.300781 C 11.238281 -4.972656 12.746094 -4.558594 13.421875 -3.371094 C 14.097656 -2.183594 13.679688 -0.675781 12.492188 0 Z M 5.25 12 C 2.894531 9.242188 3.140625 5.121094 5.800781 2.660156 C 8.464844 0.199219 12.59375 0.28125 15.15625 2.84375 C 17.71875 5.40625 17.800781 9.535156 15.339844 12.199219 C 12.878906 14.859375 8.757812 15.105469 6 12.75 L 10.925781 11.625 C 11.234375 12.984375 10.382812 14.339844 9.023438 14.648438 C 7.664062 14.960938 6.3125 14.109375 6 12.75 L 3.53125 17.046875 C 2.34375 17.003906 1.417969 16.007812 1.460938 14.820312 C 1.503906 13.632812 2.5 12.707031 3.6875 12.75 Z M 12 18.75 C 13.300781 15.257812 17.144531 13.4375 20.671875 14.640625 C 24.199219 15.839844 26.132812 19.632812 25.03125 23.191406 C 23.929688 26.753906 20.195312 28.789062 16.605469 27.789062 C 13.015625 26.792969 10.871094 23.117188 11.769531 19.5 L 14.234375 15.207031 C 15.417969 15.890625 15.828125 17.402344 15.144531 18.585938 C 14.464844 19.773438 12.953125 20.179688 11.769531 19.5 L 17.808594 19.5 C 17.808594 21.167969 16.457031 22.519531 14.789062 22.519531 C 13.121094 22.519531 11.769531 21.167969 11.769531 19.5 Z M 12 18.75 "/>
</g>
</svg>
