<?xml version="1.0" encoding="UTF-8"?>
<svg xmlns="http://www.w3.org/2000/svg" xmlns:xlink="http://www.w3.org/1999/xlink" width="24px" height="24px" viewBox="0 0 24 24" version="1.1">
<g id="surface1">
<path style="fill:none;stroke-width:32;stroke-linecap:butt;stroke-linejoin:miter;stroke:rgb(0%,0%,0%);stroke-opacity:1;stroke-miterlimit:10;" d="M 200 246.833333 C 208.833333 305.5 192.666667 337.5 147.083333 344.25 C 96.416667 351.75 75.583333 317.833333 66.75 259.166667 C 54.916667 180.333333 82.75 131.25 122.5 128.083333 C 158.583333 125.25 191.166667 188.25 200 246.833333 Z M 223.666667 409.5 C 226.75 442.833333 208.75 473.833333 181.666667 479.166667 C 154.25 484.583333 122.916667 462.833333 116.583333 430 C 110.166667 397.166667 134.333333 395.416667 163.916667 389.75 C 193.416667 384.166667 219.833333 369.416667 223.666667 409.5 Z M 312 150.833333 C 303.166667 209.416667 319.333333 241.5 364.916667 248.25 C 415.583333 255.75 436.416667 221.833333 445.25 163.166667 C 457.083333 84.25 429.25 35 389.5 32.083333 C 353.166667 29.416667 320.833333 92.25 312 150.833333 Z M 288.333333 313.5 C 285.25 346.833333 303.25 377.833333 330.333333 383.166667 C 357.75 388.583333 389.083333 366.833333 395.416667 334 C 401.833333 301.166667 377.666667 299.416667 348.083333 293.75 C 318.583333 288.083333 292.166667 273.416667 288.333333 313.5 Z M 288.333333 313.5 " transform="matrix(0.046875,0,0,0.046875,0,0)"/>
</g>
</svg>
