<?xml version="1.0" encoding="UTF-8"?>
<svg xmlns="http://www.w3.org/2000/svg" xmlns:xlink="http://www.w3.org/1999/xlink" width="24px" height="24px" viewBox="0 0 24 24" version="1.1">
<g id="surface1">
<path style="fill:none;stroke-width:32;stroke-linecap:round;stroke-linejoin:round;stroke:rgb(0%,0%,0%);stroke-opacity:1;stroke-miterlimit:4;" d="M 344 48 L 320 48 C 306.75 52.416667 292.416667 45.25 288 32 C 283.583333 18.75 290.75 4.416667 304 0 L 208 0 C 212.916667 -2.833333 219.083333 -2.833333 224 0 L 200 0 C 217.333333 -10 238.666667 -10 256 0 L 256 247 C 256 282.333333 400 312 400 312 C 400 312 544 282.333333 544 247 L 544 104 C 515.25 119.5 479.5 108.75 464 80 C 448.5 51.25 459.25 15.5 488 0 Z M 256 352 C 256 325.5 277.5 304 304 304 C 330.5 304 352 325.5 352 352 C 352 378.5 330.5 400 304 400 Z M 352 192 C 409.416667 187.583333 459.583333 230.583333 464 288 C 468.416667 345.416667 425.416667 395.583333 368 400 L 176 400 C 182.25 403.583333 185.333333 411 183.416667 418 C 181.583333 425 175.25 429.833333 168 429.833333 C 160.75 429.833333 154.416667 425 152.583333 418 C 150.666667 411 153.75 403.583333 160 400 L 160 336 C 177.666667 336 192 350.333333 192 368 C 192 385.666667 177.666667 400 160 400 L 320 400 C 320 444.166667 284.166667 480 240 480 C 195.833333 480 160 444.166667 160 400 Z M 144 464 L 368 464 M 336 432 L 384 480 M 176 432 L 128 480 " transform="matrix(0.046875,0,0,0.046875,0,0)"/>
</g>
</svg>
